<?xml version="1.0" standalone="no"?>
<!DOCTYPE svg PUBLIC "-//W3C//DTD SVG 20010904//EN"
 "http://www.w3.org/TR/2001/REC-SVG-20010904/DTD/svg10.dtd">
<svg version="1.0" xmlns="http://www.w3.org/2000/svg"
 width="360.000000pt" height="360.000000pt" viewBox="0 0 360.000000 360.000000"
 preserveAspectRatio="xMidYMid meet">

<g transform="translate(0.000000,360.000000) scale(0.100000,-0.100000)"
fill="#000000" stroke="none">
<path d="M3233 3158 c-70 -56 -209 -170 -308 -253 -254 -213 -346 -287 -625
-495 -255 -192 -378 -304 -444 -404 -46 -69 -76 -159 -76 -224 1 -71 26 -176
45 -187 9 -5 42 -29 73 -52 l57 -42 103 -1 c156 0 175 13 329 234 42 61 190
266 327 456 137 190 296 410 354 490 58 80 145 200 195 268 149 206 179 266
145 300 -24 24 -49 11 -175 -90z m-1225 -1538 l43 -50 -35 0 c-25 0 -48 11
-86 41 -53 42 -62 57 -74 123 l-7 38 58 -51 c32 -28 77 -74 101 -101z"/>
<path d="M1601 1574 c-73 -19 -163 -69 -222 -121 -96 -87 -169 -233 -169 -338
0 -106 74 -253 167 -330 44 -37 128 -95 138 -95 2 0 -8 28 -23 63 -46 110 -29
232 48 350 41 61 68 72 39 16 -19 -39 -59 -177 -59 -206 0 -10 10 -7 33 10 17
14 52 35 77 47 139 69 250 173 285 264 39 103 -4 254 -92 321 -41 31 -52 35
-107 34 -34 0 -85 -7 -115 -15z m197 -31 c2 -7 -5 -16 -15 -19 -10 -4 -28 -16
-40 -27 l-23 -20 0 21 c0 12 5 22 10 22 6 0 10 4 10 8 0 4 -26 5 -57 1 -71 -8
-79 -4 -22 11 24 6 49 13 54 15 21 8 79 -1 83 -12z"/>
<path d="M697 1200 c-78 -14 -150 -39 -230 -83 -159 -88 -256 -186 -278 -283
-10 -45 -9 -56 9 -96 16 -38 29 -50 75 -73 52 -25 64 -27 154 -23 108 3 159
22 233 85 21 18 41 33 44 33 7 0 -77 -167 -97 -193 -12 -14 -20 -16 -41 -7
-40 15 -113 12 -146 -5 -39 -20 -47 -56 -23 -97 32 -55 116 -60 182 -11 32 25
34 25 67 9 43 -20 114 -21 140 -1 18 13 17 14 -19 15 -39 0 -69 11 -99 37 -15
14 -14 19 18 71 59 99 137 292 138 342 1 39 -2 45 -20 48 -16 2 -28 -7 -45
-35 -83 -139 -255 -264 -304 -223 -21 18 -18 74 6 123 51 99 228 246 352 292
40 15 47 22 47 45 0 16 -7 30 -16 34 -20 8 -86 6 -147 -4z m-157 -699 c0 -12
-26 -21 -61 -21 -28 0 -37 9 -22 23 10 10 83 8 83 -2z"/>
<path d="M1035 990 c-26 -10 -140 -201 -171 -285 -15 -40 -25 -91 -25 -126 -2
-114 54 -160 202 -167 119 -6 178 13 254 79 62 54 108 79 147 79 21 0 21 1 6
16 -15 15 -21 15 -60 2 -24 -8 -51 -19 -61 -23 -13 -6 -8 12 23 76 22 46 40
88 40 95 0 6 -11 19 -24 27 -23 15 -23 15 -49 -48 -37 -96 -124 -222 -160
-235 -38 -13 -83 -13 -108 0 -15 9 -19 22 -19 66 0 71 42 180 114 298 62 101
62 113 -5 131 -24 6 -53 14 -64 17 -11 4 -29 3 -40 -2z"/>
<path d="M1764 958 c-6 -7 -21 -39 -33 -70 -30 -74 -100 -197 -151 -263 -22
-29 -38 -59 -35 -66 10 -25 50 -37 101 -28 87 14 136 10 192 -16 63 -29 84
-31 122 -9 47 29 63 68 57 140 -5 55 -4 64 12 69 57 18 95 106 71 165 -17 42
-40 52 -155 67 -55 7 -116 16 -136 19 -23 4 -39 1 -45 -8z m253 -84 c25 -5 37
-34 28 -65 -9 -29 -80 -59 -139 -59 -45 0 -48 1 -42 23 4 12 12 43 18 69 l11
47 51 -5 c28 -3 61 -7 73 -10z m-66 -211 c14 -37 11 -68 -10 -94 l-18 -23 -60
27 c-33 15 -68 27 -78 27 -19 0 -19 2 15 52 24 36 27 37 83 37 52 -1 59 -4 68
-26z"/>
<path d="M2323 821 c-83 -28 -161 -96 -194 -166 -29 -65 -44 -178 -30 -225 17
-59 70 -95 135 -94 56 1 144 34 172 65 17 19 18 18 35 -11 19 -30 35 -35 94
-31 34 3 55 17 55 37 0 9 -10 11 -33 7 -41 -6 -67 16 -67 56 0 15 25 83 55
151 30 68 55 131 55 140 0 9 -10 26 -23 38 -56 53 -159 66 -254 33z m183 -116
c11 -27 -38 -137 -88 -196 -53 -64 -117 -107 -173 -116 l-37 -6 7 54 c18 132
84 211 216 259 66 24 68 24 75 5z"/>
</g>
</svg>
